<?xml version="1.0"?>
<svg width="518" height="120" xmlns="http://www.w3.org/2000/svg" xmlns:svg="http://www.w3.org/2000/svg">
 <g class="layer">
  <title>Layer 1</title>
  <path d="m0,27.66c0,-7.77 8.48,-12.57 15.14,-8.57l25.15,15.08c6.02,3.62 9.71,10.13 9.71,17.15l0,17.36c0,7.02 -3.69,13.53 -9.71,17.15l-25.15,15.08c-6.66,4 -15.14,-0.8 -15.14,-8.57l0,-64.68z" fill="#FA776C" id="svg_1"/>
  <path d="m103.86,0c5.29,0 7.99,6.36 4.31,10.17l-13.27,13.73c-3.77,3.9 -8.96,6.1 -14.38,6.1l-24.98,0c-3.63,0 -7.18,-0.99 -10.29,-2.85l-26.68,-16.01c-5.21,-3.13 -2.99,-11.14 3.09,-11.14l82.2,0z" fill="#624CF5" id="svg_2"/>
  <path d="m103.86,120c5.29,0 7.99,-6.36 4.31,-10.17l-13.27,-13.73c-3.77,-3.9 -8.96,-6.1 -14.38,-6.1l-24.98,0c-3.63,0 -7.18,0.99 -10.29,2.85l-26.68,16.01c-5.21,3.13 -2.99,11.14 3.09,11.14l82.2,0z" fill="#624CF5" id="svg_3"/>
  <rect fill="#FA776C" height="30" id="svg_4" rx="15" width="30" x="56" y="45"/>
  <text fill="#000000" font-family="Helvetica" font-size="68" font-weight="bold" id="svg_6" stroke-width="0" text-anchor="middle" transform="rotate(-0.283868 308.46 57.0523) matrix(1.12161 0 0 1 -29.4132 0.0305538)" x="301.24" xml:space="preserve" y="80.74">EventSwift</text>
 </g>
</svg>